<?xml version="1.0" standalone="no"?>
<!DOCTYPE svg PUBLIC "-//W3C//DTD SVG 20010904//EN"
 "http://www.w3.org/TR/2001/REC-SVG-20010904/DTD/svg10.dtd">
<svg version="1.0" xmlns="http://www.w3.org/2000/svg"
 width="980.000000pt" height="984.000000pt" viewBox="0 0 980.000000 984.000000"
 preserveAspectRatio="xMidYMid meet">
<metadata>
Created by potrace 1.16, written by Peter Selinger 2001-2019
</metadata>
<g transform="translate(0.000000,984.000000) scale(0.100000,-0.100000)"
fill="#000000" stroke="none">
<path d="M4552 9819 c-487 -35 -1013 -156 -1469 -339 -178 -72 -501 -232 -668
-332 -1708 -1022 -2632 -2927 -2370 -4883 164 -1220 781 -2330 1735 -3124 908
-756 2050 -1155 3225 -1128 350 8 640 43 967 116 1787 400 3226 1804 3676
3586 284 1123 166 2295 -337 3340 -340 706 -869 1346 -1496 1810 -761 564
-1641 889 -2585 955 -167 11 -512 11 -678 -1z m658 -409 c1470 -110 2768 -908
3536 -2176 335 -552 540 -1163 620 -1849 27 -228 25 -729 -4 -965 -69 -569
-205 -1025 -454 -1520 -214 -426 -466 -782 -797 -1123 -504 -518 -1126 -907
-1820 -1137 -611 -202 -1309 -267 -1966 -184 -1350 172 -2566 970 -3275 2150
-639 1062 -809 2362 -465 3557 520 1808 2110 3104 3985 3246 156 12 486 12
640 1z"/>
<path d="M2105 7191 c-33 -9 -85 -30 -115 -46 -78 -42 -188 -155 -227 -236
-67 -135 -63 -10 -63 -1989 0 -1979 -4 -1854 63 -1989 41 -84 149 -195 232
-238 131 -68 -111 -63 2973 -63 1999 0 2806 3 2844 11 128 27 254 113 331 226
53 78 82 151 97 250 7 46 10 640 8 1848 l-3 1780 -27 81 c-64 189 -223 335
-406 373 -38 8 -844 11 -2850 10 -2617 0 -2801 -2 -2857 -18z m5453 -389 c-2
-7 -1513 -1392 -2143 -1966 -272 -248 -406 -314 -530 -261 -110 47 -199 119
-550 440 -126 116 -606 554 -1065 974 -459 420 -848 777 -865 792 l-30 29
2594 0 c1426 0 2591 -4 2589 -8z m-4589 -1145 c454 -411 826 -751 826 -756 0
-4 -72 -75 -160 -157 -242 -226 -1477 -1375 -1502 -1397 l-23 -20 0 1552 c0
1450 1 1553 17 1540 9 -8 388 -351 842 -762z m4871 -783 l0 -1555 -287 268
c-159 147 -539 502 -846 787 -307 286 -556 524 -554 530 4 12 1669 1524 1680
1525 4 1 7 -699 7 -1555z m-3593 -415 c184 -167 231 -203 327 -249 137 -66
216 -83 396 -83 179 0 260 17 395 82 101 48 166 97 339 255 76 69 141 126 145
126 5 0 1595 -1451 1676 -1531 l30 -29 -2578 0 c-1417 0 -2577 3 -2576 8 1 13
1684 1551 1696 1549 6 -1 74 -58 150 -128z"/>
</g>
</svg>
